<svg width="64" height="64" viewBox="0 0 21 21" fill="none" xmlns="http://www.w3.org/2000/svg">
<path d="M8.72831 11.1896C8.78978 10.1017 9.32677 9.14331 10.1369 8.46389C10.9314 7.79655 12.0007 7.38867 13.1674 7.38867C14.333 7.38867 15.4024 7.79655 16.1974 8.46389C17.007 9.14331 17.5439 10.1017 17.606 11.1885C17.6675 12.3063 17.2146 13.3447 16.4201 14.1144C15.61 14.8974 14.4577 15.3887 13.1674 15.3887C11.8772 15.3887 10.7226 14.8974 9.91305 14.1144C9.11801 13.3447 8.66627 12.3063 8.72831 11.1896Z" fill="white"/>
<path d="M10.8297 11.0791C10.863 10.4861 11.1533 9.9637 11.5914 9.59338C12.021 9.22964 12.5992 9.00732 13.2301 9.00732C13.8603 9.00732 14.4385 9.22964 14.8684 9.59338C15.3062 9.9637 15.5965 10.4861 15.6301 11.0784C15.6633 11.6877 15.4184 12.2537 14.9889 12.6732C14.5508 13.1 13.9277 13.3678 13.2301 13.3678C12.5324 13.3678 11.9081 13.1 11.4703 12.6732C11.0404 12.2537 10.7962 11.6877 10.8297 11.0791Z" fill="#0E548B"/>
<path d="M7.05652 12.2623C7.0606 12.4944 7.1346 12.9453 7.2456 13.2974C7.47889 14.0428 7.87461 14.7323 8.42524 15.34C8.99028 15.9646 9.68608 16.4663 10.4898 16.8225C11.3345 17.1966 12.2498 17.3873 13.2005 17.3857C14.1497 17.3844 15.065 17.19 15.9097 16.8131C16.7134 16.4535 17.4086 15.9496 17.9727 15.3246C18.523 14.7144 18.9181 14.0236 19.152 13.2783C19.2696 12.9017 19.3439 12.5195 19.3737 12.136C19.4029 11.7581 19.3906 11.3796 19.337 11.0015C19.2323 10.2646 18.9774 9.5732 18.5848 8.94293C18.2257 8.36377 17.7629 7.85674 17.2126 7.42997L17.2139 7.42903L11.6603 3.16485C11.6553 3.16109 11.6512 3.15701 11.6459 3.15356C11.2815 2.87386 10.6688 2.8748 10.2681 3.15513C9.86293 3.43859 9.81653 3.90738 10.1771 4.20307L10.1756 4.20464L12.4919 6.08823L5.43194 6.09575C5.42849 6.09575 5.42504 6.09575 5.42253 6.09575C4.83898 6.09638 4.27802 6.47924 4.16701 6.96307C4.05287 7.456 4.44922 7.86489 5.05597 7.86708L5.05503 7.86928L8.63344 7.86238L2.24799 12.7637C2.23984 12.7697 2.23106 12.776 2.22353 12.7819C1.62117 13.2432 1.42645 14.0101 1.80586 14.4955C2.19092 14.9891 3.00964 14.99 3.61827 14.4984L7.10324 11.6462C7.10324 11.6462 7.05244 12.0312 7.05652 12.2623ZM16.0116 13.5517C15.2936 14.2833 14.2883 14.6981 13.2005 14.7003C12.1112 14.7022 11.1059 14.2911 10.3878 13.5608C10.037 13.2049 9.77921 12.7954 9.62024 12.3592C9.46439 11.9306 9.40387 11.4756 9.44401 11.0165C9.48195 10.5678 9.61553 10.1398 9.82876 9.75255C10.0382 9.37189 10.3267 9.0279 10.6829 8.73692C11.3809 8.16811 12.2696 7.86019 13.199 7.85893C14.1293 7.85768 15.0173 8.16278 15.716 8.7297C16.0715 9.01944 16.3597 9.36217 16.5692 9.74221C16.7833 10.1291 16.916 10.5556 16.9555 11.0056C16.995 11.464 16.9345 11.9184 16.7786 12.3473C16.6193 12.7847 16.3625 13.1943 16.0116 13.5517Z" fill="#F4792B"/>
</svg>
