<svg width="130" height="28" viewBox="0 0 130 28" fill="none" xmlns="http://www.w3.org/2000/svg">
<g clip-path="url(#clip0_1080_206998)">
<path d="M119.755 21.0006H117.091V6.99902H119.726L127.336 16.6774V6.99902H130V21.0006H127.365L119.755 11.3222V21.0006Z" fill="white"/>
<path d="M110.154 21.0006H105.794C103.269 21.0006 101.213 18.9752 101.213 16.4819V11.5177C101.213 9.02764 103.269 6.99902 105.794 6.99902H110.154C112.679 6.99902 114.736 9.02764 114.736 11.5177V16.4819C114.736 18.972 112.682 21.0006 110.154 21.0006ZM105.794 9.62693C104.738 9.62693 103.877 10.4762 103.877 11.5177V16.4819C103.877 17.5235 104.738 18.3727 105.794 18.3727H110.154C111.21 18.3727 112.071 17.5235 112.071 16.4819V11.5177C112.071 10.4762 111.21 9.62693 110.154 9.62693H105.794Z" fill="white"/>
<path d="M94.2696 21.0006H89.9093C87.3848 21.0006 85.3281 18.9752 85.3281 16.4819V11.5177C85.3281 9.02764 87.3848 6.99902 89.9093 6.99902H95.878C97.3498 6.99902 98.5422 8.17517 98.5422 9.62693H89.9093C88.8534 9.62693 87.9924 10.4762 87.9924 11.5177V16.4819C87.9924 17.5235 88.8534 18.3727 89.9093 18.3727H94.2696C95.3256 18.3727 96.1866 17.5235 96.1866 16.4819V14.9372H92.2942V12.5112H98.8509V16.4787C98.8509 18.972 96.7942 21.0006 94.2696 21.0006Z" fill="white"/>
<path d="M82.9724 6.99902H80.3081V21.0006H82.9724V6.99902Z" fill="white"/>
<path d="M77.7477 6.99902H75.0835V21.0006H77.7477V6.99902Z" fill="white"/>
<path d="M73.1375 21.0006H63.3057V6.99902H65.9699V18.3727H73.1375V21.0006Z" fill="white"/>
<path d="M56.3687 21.0006H52.0084C49.4839 21.0006 47.4272 18.9752 47.4272 16.4819V11.5177C47.4272 9.02764 49.4839 6.99902 52.0084 6.99902H56.3687C58.8933 6.99902 60.95 9.02764 60.95 11.5177V16.4819C60.95 18.972 58.8933 21.0006 56.3687 21.0006ZM52.0084 9.62693C50.9525 9.62693 50.0914 10.4762 50.0914 11.5177V16.4819C50.0914 17.5235 50.9525 18.3727 52.0084 18.3727H56.3687C57.4247 18.3727 58.2857 17.5235 58.2857 16.4819V11.5177C58.2857 10.4762 57.4247 9.62693 56.3687 9.62693H52.0084Z" fill="white"/>
<path d="M35.4411 21.0006H32.7769V6.99902H40.8964C43.4209 6.99902 45.4776 9.02764 45.4776 11.5177V13.4502C45.4776 15.9403 43.4242 17.9689 40.8964 17.9689H35.4379V21.0006H35.4411ZM35.4411 15.341H40.8996C41.9556 15.341 42.8166 14.4918 42.8166 13.4502V11.5177C42.8166 10.4762 41.9556 9.62693 40.8996 9.62693H35.4411V15.341Z" fill="white"/>
<path d="M12.2915 13.9981V18.6674L16.3886 16.3344V11.665L12.2915 13.9981Z" fill="#77C5D5"/>
<path d="M8.19434 11.665V16.3344L12.2915 18.6674V13.9981L8.19434 11.665Z" fill="white"/>
<path d="M12.2915 9.33203L8.19434 11.6651L12.2915 13.9982L16.3886 11.6651L12.2915 9.33203Z" fill="#00A9CE"/>
<path d="M12.2914 0L0 6.9992V21.0008L4.09712 23.3339V9.33226L12.2914 4.66613L20.4856 9.33226V18.6677L12.2914 23.3339L8.19425 21.0008V25.6669L12.2914 28L24.586 21.0008V6.9992L12.2914 0Z" fill="white"/>
</g>
<defs>
<clipPath id="clip0_1080_206998">
<rect width="130" height="28" fill="white"/>
</clipPath>
</defs>
</svg>
